# xmcd
#
# Track frame offsets:
#	150
#	15850
#	27326
#	41971
#	56432
#	86186
#	107394
#	122903
#	137512
#	151074
#	173070
#	186373
#	216763
#
# Disc length: 3360 seconds
# Revision: 1
# Processed by: cddbd v1.5.2PL0 Copyright (c) Steve Scherf et al.
# Submitted via: dBpowerAMP V12.0
#
DISCID=a50d1e0d
DTITLE=Orville Johnson - Blueprint for the Blues
DYEAR=2000
DGENRE=Blues
TTITLE0=Grinnin' in Your Face
TTITLE1=Good Understanding
TTITLE2=Tired Chicken Blues
TTITLE3=Rainy City Blues
TTITLE4=God's Gonna Ease My Troublin' Mind
TTITLE5=The Other Side of This Life
TTITLE6=My Sweet Octoroon
TTITLE7=If You Need Me
TTITLE8=The Last Meal
TTITLE9=Death Don't Have No Mercy
TTITLE10=Tears Come Rollin' Down
TTITLE11=Tell Ol' Bill
TTITLE12=Blueprint for the Blues
EXTD=
EXTT0=
EXTT1=
EXTT2=
EXTT3=
EXTT4=
EXTT5=
EXTT6=
EXTT7=
EXTT8=
EXTT9=
EXTT10=
EXTT11=
EXTT12=
PLAYORDER=
